Coordinates
version=1
nRows=27
nColumns=12
inDegrees=yes

Units are S.I. units (second, meters, Newtons, ...)
Angles are in degrees

endheader
time	SC_y	SC_z	SC_x	AC_y	AC_z	AC_x	GH_y	GH_z	GH_yy	EL_x	PS_y
       0.0              -51.37          32.56          45.97          50.84         -18.19         -8.696          29.51        -0.4009         -1.218          44.16          130.5
  0.001944              -51.37          32.56          45.97          50.84         -18.18         -8.692           29.5        -0.4034         -1.235          44.17          130.5
  0.003887              -51.36          32.56          45.98          50.84         -18.18         -8.689           29.5        -0.4061         -1.253          44.18          130.5
  0.005831              -51.36          32.56          45.99          50.84         -18.18         -8.684           29.5         -0.409         -1.272          44.19          130.5
  0.007774              -51.35          32.56          45.99          50.84         -18.18          -8.68          29.49         -0.412         -1.292           44.2          130.4
  0.009718              -51.34          32.56           46.0          50.85         -18.17         -8.675          29.49        -0.4153         -1.313          44.21          130.4
   0.01166              -51.34          32.56           46.0          50.85         -18.17          -8.67          29.49        -0.4187         -1.336          44.23          130.4
    0.0136              -51.33          32.56          46.01          50.85         -18.17         -8.665          29.48        -0.4224         -1.361          44.24          130.4
   0.01555              -51.32          32.56          46.02          50.85         -18.16         -8.659          29.48        -0.4264         -1.387          44.25          130.4
   0.01749              -51.31          32.56          46.03          50.86         -18.16         -8.653          29.47        -0.4306         -1.416          44.27          130.4
   0.01944               -51.3          32.55          46.04          50.86         -18.15         -8.646          29.47        -0.4352         -1.446          44.29          130.3
   0.02138              -51.29          32.55          46.05          50.86         -18.15         -8.639          29.46        -0.4401         -1.479          44.31          130.3
   0.02332              -51.28          32.55          46.06          50.87         -18.15         -8.631          29.46        -0.4454         -1.514          44.33          130.3
   0.02527              -51.27          32.55          46.07          50.87         -18.14         -8.623          29.45        -0.4512         -1.552          44.35          130.3
   0.02721              -51.26          32.55          46.08          50.88         -18.13         -8.614          29.44        -0.4573         -1.593          44.37          130.2
   0.02915              -51.24          32.55           46.1          50.88         -18.13         -8.604          29.43        -0.4641         -1.638           44.4          130.2
    0.0311              -51.23          32.54          46.11          50.88         -18.12         -8.594          29.43        -0.4714         -1.686          44.42          130.2
   0.03304              -51.21          32.54          46.13          50.89         -18.12         -8.582          29.42        -0.4793         -1.739          44.45          130.1
   0.03498              -51.19          32.54          46.14           50.9         -18.11          -8.57          29.41         -0.488         -1.797          44.49          130.1
   0.03693              -51.17          32.54          46.16           50.9          -18.1         -8.556           29.4        -0.4975          -1.86          44.52          130.1
   0.03887              -51.15          32.53          46.18          50.91         -18.09         -8.541          29.38         -0.508         -1.929          44.56          130.0
   0.04081              -51.13          32.53          46.21          50.92         -18.08         -8.524          29.37        -0.5194         -2.005          44.61          130.0
   0.04276               -51.1          32.53          46.23          50.93         -18.07         -8.506          29.36        -0.5321          -2.09          44.65          129.9
    0.0447              -51.07          32.52          46.26          50.94         -18.06         -8.485          29.34        -0.5462         -2.183          44.71          129.8
   0.04665              -51.04          32.52          46.29          50.95         -18.04         -8.462          29.32        -0.5618         -2.287          44.77          129.8
   0.04859              -51.01          32.51          46.33          50.96         -18.03         -8.437           29.3        -0.5793         -2.403          44.83          129.7
   0.05053              -50.97          32.51          46.37          50.97         -18.01         -8.409          29.28        -0.5988         -2.533          44.91          129.6
